# xmcd
#
# Track frame offsets: 
#        150
#        8310
#        15008
#        28264
#        38074
#        51403
#        60935
#        71076
#        82426
#        97569
#
# Disc length: 1521 seconds
#
# Revision: 0
# Processed by: cddbd v1.5.2PL0 Copyright (c) Steve Scherf et al.
# Submitted via: ExactAudioCopy v0.95b4
#
DISCID=6b05ef0a
DTITLE=Pretty Boy Thorson and the Falling Angels - Take It Easy
DYEAR=2007
DGENRE=Punk
TTITLE0=Dear Jenny
TTITLE1=It's All Gonna End
TTITLE2=Love Is Nice
TTITLE3=Tight Ship
TTITLE4=Try To Get Some Sleep
TTITLE5=Whiskey and Gun
TTITLE6=Irreplaceable II (The Remix)
TTITLE7=Sweet Heart
TTITLE8=I Should Really Move Out Of The Alamo
TTITLE9=Remember The Lillies Of The God Damn Field
EXTD=
EXTT0=
EXTT1=
EXTT2=
EXTT3=
EXTT4=
EXTT5=
EXTT6=
EXTT7=
EXTT8=
EXTT9=
PLAYORDER=
